<svg xmlns="http://www.w3.org/2000/svg" width="76" height="76" viewBox="0 0 76 76">
  <g id="Group_15" data-name="Group 15" transform="translate(-1378 -3751)">
    <circle id="Ellipse_15" data-name="Ellipse 15" cx="38" cy="38" r="38" transform="translate(1378 3751)" fill="#b8e6ff"/>
    <g id="Group_13" data-name="Group 13" transform="translate(1399.329 3772.178)">
      <path id="Path_15" data-name="Path 15" d="M1.17,4.89C17.412,8.573,16.589,8.411,16.746,8.411s-.715.178,15.574-3.523a.693.693,0,0,0,.514-.5.663.663,0,0,0,.032-.182.7.7,0,0,0-.547-.684L16.9.017a.68.68,0,0,0-.31,0L1.17,3.522a.7.7,0,0,0-.545.684.719.719,0,0,0,.031.182.7.7,0,0,0,.514.5Z" transform="translate(0.1)" fill="#006da8"/>
      <path id="Path_16" data-name="Path 16" d="M23.159,17.932a.353.353,0,0,0-.328.107l-5.569,6.076a.7.7,0,0,1-1.032,0l-5.571-6.081a.348.348,0,0,0-.327-.107C6,18.792.625,20.983.625,24.192v1.55a.7.7,0,0,0,.7.7h30.84a.7.7,0,0,0,.7-.7v-1.55C32.867,20.944,27.351,18.766,23.159,17.932Z" transform="translate(0.1 7.201)" fill="#006da8"/>
      <path id="Path_17" data-name="Path 17" d="M4.23,16.529a1.051,1.051,0,0,0,1.051-1.051c0-5.5-1.03-.841-1.051-9.562a.35.35,0,0,0-.272-.341L1.854,5.1a.352.352,0,0,0-.429.341c-.034,9.2-1.05,4.674-1.05,10.033a1.051,1.051,0,0,0,1.051,1.051Z" transform="translate(0 2.047)" fill="#006da8"/>
      <path id="Path_18" data-name="Path 18" d="M15.247,8.07a1.4,1.4,0,0,1-.622,0L5.551,6.008a.349.349,0,0,0-.421.342v6.66a9.813,9.813,0,0,0,6.589,9.252,9.626,9.626,0,0,0,6.448,0,9.813,9.813,0,0,0,6.589-9.252V6.35a.35.35,0,0,0-.429-.342Zm-.311,11.949A7.062,7.062,0,0,1,7.927,13.01v-2.9a25.505,25.505,0,0,0,7.009.8,25.514,25.514,0,0,0,7.009-.8v2.9a7.065,7.065,0,0,1-7.009,7.009Z" transform="translate(1.911 2.411)" fill="#006da8"/>
      <circle id="Ellipse_16" data-name="Ellipse 16" cx="1.402" cy="1.402" r="1.402" transform="translate(18.248 14.371)" fill="#006da8"/>
      <circle id="Ellipse_17" data-name="Ellipse 17" cx="1.402" cy="1.402" r="1.402" transform="translate(12.641 14.371)" fill="#006da8"/>
      <path id="Path_19" data-name="Path 19" d="M14.26,13.362h-2.8a.9.9,0,0,0-.432,1.682,3.974,3.974,0,0,0,1.834.435,3.91,3.91,0,0,0,1.831-.432.9.9,0,0,0-.429-1.682Z" transform="translate(4.093 5.37)" fill="#006da8"/>
    </g>
  </g>
</svg>
