<svg xmlns="http://www.w3.org/2000/svg" width="76" height="76" viewBox="0 0 76 76">
  <g id="Group_17" data-name="Group 17" transform="translate(-866 -3435)">
    <circle id="Ellipse_11" data-name="Ellipse 11" cx="38" cy="38" r="38" transform="translate(866 3435)" fill="#bfffd8"/>
    <path id="Path_14" data-name="Path 14" d="M52.126,34.165a5.345,5.345,0,0,0,.085-.911,5.237,5.237,0,1,0-10.469,0,5.344,5.344,0,0,0,.085.911,5.514,5.514,0,0,0-2.076,4.2c0,2.9,2.477,5.316,5.763,5.876V50.7H37.28V21.315a1.029,1.029,0,0,0-1.035-1.035H21.778a1.029,1.029,0,0,0-1.035,1.035V50.724H18v3.2H51.583V50.7h-3.15V44.243c3.292-.56,5.763-2.981,5.763-5.876a5.526,5.526,0,0,0-2.07-4.2Zm-21.616-9.2a.616.616,0,0,1,.616-.616h2.432a.616.616,0,0,1,.616.616V27.4a.616.616,0,0,1-.616.639H31.127a.616.616,0,0,1-.616-.616Zm0,6.035a.616.616,0,0,1,.616-.616h2.432a.616.616,0,0,1,.616.616v2.432a.616.616,0,0,1-.616.616H31.127a.616.616,0,0,1-.616-.616Zm0,6.035a.616.616,0,0,1,.616-.622h2.432a.616.616,0,0,1,.616.622v2.426a.616.616,0,0,1-.616.622H31.127a.616.616,0,0,1-.616-.622Zm0,6.029a.616.616,0,0,1,.616-.616h2.432a.616.616,0,0,1,.616.616V45.5a.616.616,0,0,1-.616.639H31.127a.616.616,0,0,1-.616-.616Zm-6.662-18.1a.616.616,0,0,1,.616-.616H26.9a.616.616,0,0,1,.616.616V27.4a.616.616,0,0,1-.616.639H24.464a.616.616,0,0,1-.616-.616Zm0,6.035a.616.616,0,0,1,.616-.616H26.9a.616.616,0,0,1,.616.616v2.432a.616.616,0,0,1-.616.616H24.464a.616.616,0,0,1-.616-.616Zm0,6.035a.616.616,0,0,1,.616-.622H26.9a.616.616,0,0,1,.616.622v2.426a.616.616,0,0,1-.616.622H24.464a.616.616,0,0,1-.616-.622Zm0,6.029a.616.616,0,0,1,.616-.616H26.9a.616.616,0,0,1,.616.616V45.5a.616.616,0,0,1-.616.639H24.464a.616.616,0,0,1-.616-.616Z" transform="translate(867.902 3435.897)" fill="#008333"/>
  </g>
</svg>
