<svg xmlns="http://www.w3.org/2000/svg" width="76" height="76" viewBox="0 0 76 76">
  <g id="Group_14" data-name="Group 14" transform="translate(-1055 -3726)">
    <circle id="Ellipse_20" data-name="Ellipse 20" cx="38" cy="38" r="38" transform="translate(1055 3726)" fill="#edffb7"/>
    <path id="Path_22" data-name="Path 22" d="M35.367,10.97H28.4V7.485A3.484,3.484,0,0,0,24.911,4h-6.97a3.484,3.484,0,0,0-3.485,3.485V10.97H7.485a3.469,3.469,0,0,0-3.468,3.485L4,33.624a3.484,3.484,0,0,0,3.485,3.485H35.367a3.484,3.484,0,0,0,3.485-3.485V14.456A3.484,3.484,0,0,0,35.367,10.97Zm-10.456,0h-6.97V7.485h6.97Z" transform="translate(1071.574 3743.445)" fill="#5c7c00"/>
  </g>
</svg>
