<svg xmlns="http://www.w3.org/2000/svg" width="76" height="76" viewBox="0 0 76 76">
  <g id="Group_19" data-name="Group 19" transform="translate(-866 -3435)">
    <circle id="Ellipse_11" data-name="Ellipse 11" cx="38" cy="38" r="38" transform="translate(866 3435)" fill="#bfffd8"/>
    <g id="Group_20" data-name="Group 20" transform="translate(874.748 3443.748)">
      <path id="Path_24" data-name="Path 24" d="M55.106,24.694c0-.009-.007-.015-.009-.023A26.059,26.059,0,0,0,52.01,16.19c-.01-.021-.01-.043-.021-.063s-.031-.031-.044-.049A26.366,26.366,0,0,0,49.4,12.442c-.014-.02-.019-.045-.035-.064a.815.815,0,0,0-.067-.054A26.49,26.49,0,0,0,46.181,9.21a.843.843,0,0,0-.054-.068c-.02-.017-.044-.021-.065-.035A26.38,26.38,0,0,0,42.427,6.56c-.018-.012-.029-.031-.048-.043s-.042-.011-.062-.021A26.061,26.061,0,0,0,33.838,3.41c-.01,0-.017-.009-.027-.011s-.018,0-.028,0a25.9,25.9,0,0,0-9.062,0c-.01,0-.019,0-.028,0s-.017.009-.027.011A26.061,26.061,0,0,0,16.187,6.5c-.02.01-.043.01-.062.021s-.03.03-.048.043a26.371,26.371,0,0,0-3.635,2.547c-.021.014-.045.019-.065.035a.842.842,0,0,0-.054.068,26.472,26.472,0,0,0-3.115,3.115.812.812,0,0,0-.067.053c-.016.019-.021.044-.035.064a26.362,26.362,0,0,0-2.547,3.635c-.013.019-.032.03-.044.05s-.011.043-.021.063a26.06,26.06,0,0,0-3.087,8.481c0,.009-.008.015-.009.023s0,.016,0,.024a25.9,25.9,0,0,0,0,9.07c0,.008,0,.016,0,.024s.008.017.01.026A26.057,26.057,0,0,0,6.5,42.316c.01.021.01.043.021.063a.881.881,0,0,0,.059.077,26.367,26.367,0,0,0,2.531,3.608c.014.02.019.045.035.064s.042.028.061.046A26.493,26.493,0,0,0,12.324,49.3a.841.841,0,0,0,.054.068c.022.018.049.025.072.041a26.375,26.375,0,0,0,3.628,2.541c.018.012.029.031.048.043a.857.857,0,0,0,.091.037,26.059,26.059,0,0,0,8.45,3.071c.01,0,.017.009.027.011s.042,0,.062.005a25.9,25.9,0,0,0,8.993,0c.021,0,.042,0,.062-.005s.017-.009.027-.011a26.06,26.06,0,0,0,8.449-3.07.861.861,0,0,0,.091-.037c.019-.011.03-.03.048-.043A26.374,26.374,0,0,0,46.055,49.4c.023-.016.05-.023.072-.041a.841.841,0,0,0,.054-.068A26.492,26.492,0,0,0,49.3,46.174c.018-.018.044-.026.061-.046s.021-.044.035-.064a26.366,26.366,0,0,0,2.531-3.608.879.879,0,0,0,.059-.077c.012-.02.011-.043.021-.063A26.058,26.058,0,0,0,55.1,33.838c0-.009.008-.017.01-.026s0-.016,0-.024a25.9,25.9,0,0,0,0-9.07C55.1,24.71,55.107,24.7,55.106,24.694ZM52.512,36.755l-3.4-1.238c.182-.576.336-1.164.469-1.761l3.57.63a24.219,24.219,0,0,1-.636,2.369Zm-1.661,3.922-3.138-1.812c.281-.537.54-1.086.774-1.648l3.4,1.238a24.334,24.334,0,0,1-1.039,2.222Zm-2.319,3.572-2.773-2.327q.555-.721,1.045-1.49l3.138,1.811a24.433,24.433,0,0,1-1.409,2.006Zm-6.29,5.693L40.432,46.8q.769-.491,1.491-1.045l2.327,2.773Q43.283,49.286,42.243,49.942Zm-3.788,1.948-1.238-3.4c.563-.234,1.112-.494,1.649-.774l1.812,3.138A24.337,24.337,0,0,1,38.455,51.891ZM17.828,50.852l1.812-3.138c.537.281,1.086.541,1.649.774l-1.238,3.4a24.335,24.335,0,0,1-2.222-1.039Zm-3.572-2.319,2.327-2.773q.721.555,1.491,1.045l-1.811,3.137a24.378,24.378,0,0,1-2.006-1.409Zm8.732.577c.576.182,1.165.336,1.761.468l-.63,3.57a24.2,24.2,0,0,1-2.37-.636Zm3.544.781c.6.078,1.2.134,1.815.161v3.621A24.47,24.47,0,0,1,25.9,53.46Zm3.625.161c.613-.026,1.217-.082,1.815-.161L32.6,53.46a24.469,24.469,0,0,1-2.444.212Zm3.6-.473c.6-.132,1.185-.286,1.761-.468l1.238,3.4a24.2,24.2,0,0,1-2.37.636Zm-4.5-1.315A19.011,19.011,0,1,1,48.263,29.253,19.011,19.011,0,0,1,29.253,48.263ZM8.563,42.243,11.7,40.432q.491.768,1.045,1.49L9.972,44.249Q9.22,43.283,8.563,42.243ZM6.615,38.455l3.4-1.238c.234.563.494,1.112.774,1.648L7.654,40.677a24.334,24.334,0,0,1-1.039-2.222Zm-1.258-4.07,3.57-.63c.132.6.286,1.185.469,1.761l-3.4,1.238a24.217,24.217,0,0,1-.636-2.369ZM5.993,21.75l3.4,1.238c-.182.576-.336,1.164-.469,1.761l-3.57-.629a24.217,24.217,0,0,1,.636-2.369Zm1.661-3.922,3.138,1.812c-.281.537-.54,1.086-.774,1.648l-3.4-1.238a24.334,24.334,0,0,1,1.039-2.222Zm2.319-3.572,2.773,2.327q-.555.721-1.045,1.49L8.563,16.262A24.462,24.462,0,0,1,9.972,14.256ZM8.615,26.533c-.078.6-.134,1.2-.161,1.814H4.833A24.465,24.465,0,0,1,5.046,25.9ZM4.833,30.158H8.454c.026.612.082,1.217.161,1.814l-3.569.63a24.464,24.464,0,0,1-.212-2.444ZM16.262,8.563,18.074,11.7q-.769.491-1.491,1.045L14.256,9.973Q15.222,9.22,16.262,8.563ZM20.05,6.615l1.238,3.4c-.563.234-1.112.494-1.649.774L17.828,7.654A24.334,24.334,0,0,1,20.05,6.615ZM40.677,7.654l-1.812,3.138c-.537-.281-1.086-.541-1.649-.774l1.238-3.4a24.333,24.333,0,0,1,2.222,1.039Zm3.572,2.319-2.327,2.773q-.721-.555-1.491-1.045l1.812-3.137a24.377,24.377,0,0,1,2.006,1.409ZM35.517,9.4c-.576-.182-1.165-.336-1.761-.468l.63-3.57a24.2,24.2,0,0,1,2.37.636Zm-3.544-.781c-.6-.078-1.2-.134-1.815-.161V4.833a24.47,24.47,0,0,1,2.444.212Zm-3.626-.161c-.613.026-1.217.082-1.815.161L25.9,5.046a24.469,24.469,0,0,1,2.444-.212Zm-3.6.473c-.6.132-1.185.286-1.761.468l-1.238-3.4a24.2,24.2,0,0,1,2.37-.636Zm25.192,7.335L46.8,18.074q-.491-.768-1.045-1.49l2.773-2.327Q49.286,15.222,49.942,16.262ZM51.89,20.05l-3.4,1.238c-.234-.563-.494-1.112-.774-1.648l3.138-1.812A24.33,24.33,0,0,1,51.89,20.05Zm1.258,4.07-3.57.63c-.132-.6-.286-1.185-.469-1.761l3.4-1.238a24.219,24.219,0,0,1,.636,2.369Zm-3.1,4.228c-.026-.612-.082-1.217-.161-1.814l3.569-.63a24.466,24.466,0,0,1,.212,2.444Zm-.161,3.625c.078-.6.134-1.2.161-1.814h3.621A24.467,24.467,0,0,1,53.46,32.6ZM47.372,12.867,44.6,15.2q-.616-.671-1.287-1.287l2.328-2.775Q46.548,11.956,47.372,12.867Zm-34.5-1.734L15.2,13.908q-.671.616-1.287,1.287l-2.775-2.328Q11.956,11.957,12.867,11.133ZM11.133,45.639l2.775-2.329q.616.671,1.287,1.287l-2.328,2.775Q11.957,46.549,11.133,45.639Zm34.5,1.734L43.309,44.6q.671-.616,1.287-1.287l2.775,2.329Q46.549,46.548,45.638,47.372Z" transform="translate(0 0)" fill="#008333"/>
      <path id="Path_25" data-name="Path 25" d="M40.011,29.147a.905.905,0,0,0,0-1.811H38.2V21.905a.905.905,0,1,0-1.811,0v5.432H29.528l-4.165-5.951a.905.905,0,0,0-1.647.519v5.432H21.905a.905.905,0,1,0,0,1.811h1.811v3.621H21.905a.905.905,0,1,0,0,1.811h1.811v5.432a.905.905,0,0,0,1.811,0V34.579h6.861l4.165,5.95a.905.905,0,0,0,1.647-.519V34.579h1.811a.905.905,0,0,0,0-1.811H38.2V29.147Zm-14.484-4.37,1.792,2.56H25.526Zm0,7.991V29.147h3.059l2.535,3.621Zm10.863,4.37L34.6,34.579H36.39Zm0-4.37H33.33L30.8,29.147H36.39Z" transform="translate(-1.705 -1.705)" fill="#008333"/>
    </g>
  </g>
</svg>
